<svg width="512" height="512" xmlns="http://www.w3.org/2000/svg"><g fill="none" fill-rule="evenodd"><path fill="#F5F5F5" d="M0 0h512v512H0z"/><path d="M376.068 295.653l17.872-46.819c2.99-7.853-2.767-16.23-11.217-16.23h-25.125c4.038-11.293 6.58-23.26 6.58-35.899 0-4.936-.523-9.797-1.196-14.509 22.957-5.684 37.09-13.163 37.09-21.39 0-9.947-20.415-18.772-52.42-24.68-6.879-24.532-20.189-49.213-30.358-61.927-4.637-5.908-11.666-9.124-18.844-9.124-3.59 0-7.254.822-10.693 2.543-22.284 11.143-24.153 12.789-31.257 12.789-7.104 0-9.198-1.795-31.331-12.864-3.44-1.72-7.03-2.543-10.694-2.543-7.178 0-14.132 3.216-18.843 9.124-10.095 12.715-23.48 37.395-30.36 61.927-31.93 5.983-52.343 14.808-52.343 24.755 0 8.227 14.132 15.706 37.089 21.39-.748 4.787-1.197 9.573-1.197 14.51 0 12.639 2.618 24.605 6.58 35.899H131.1c-8.599 0-14.357 8.75-10.992 16.678l19.293 45.023C109.414 311.732 89 343.817 89 380.988v33.506C89 432.967 104.03 448 122.5 448h268c18.47 0 33.5-15.033 33.5-33.506v-33.506c0-36.198-19.292-67.61-47.932-85.335zM218.364 104.34c12.114 6.058 21.685 11.966 38.136 11.966 16.301 0 26.022-5.908 38.136-11.966 14.208 22.736 19.218 44.275 20.713 49.51-16.301 1.796-35.967 2.917-58.849 2.917-22.882 0-42.473-1.196-58.85-2.916 1.496-5.31 6.506-26.775 20.714-49.511zm7.851 307.76H124.893v-31.112c0-23.035 12.114-43.827 32.528-55.569l27.518-15.93-17.573-40.985h9.422c12.712 14.135 29.013 24.606 47.558 30.44l20.19 35.375-18.32 77.782zM184.64 196.78c.074-.15.074-.224.074-.299.075.075 4.113 2.393 4.711 4.338 2.917 8.9 5.235 18.398 12.338 24.98 5.983 5.534 35.145 18.772 47.858-18.698 2.093-6.282 11.515-6.282 13.684 0 11.964 35.45 40.304 25.728 47.857 18.698 7.104-6.582 9.496-16.08 12.338-24.98.598-1.87 4.636-4.188 4.71-4.263v.224c0 39.564-32.228 71.799-71.785 71.799-39.557 0-71.785-32.235-71.785-71.799zM286.785 412.1l-18.32-77.78 20.189-35.377c18.545-5.833 34.846-16.379 47.558-30.44h11.74l-16.077 42.108 25.275 15.556c19.367 11.966 30.882 32.459 30.882 54.746v31.188H286.785z" fill="#E8E8E8" fill-rule="nonzero"/></g></svg>