<svg width="512" height="512" xmlns="http://www.w3.org/2000/svg"><g fill="none" fill-rule="evenodd"><path fill="#F5F5F5" d="M0 0h512v512H0z"/><path d="M136 232h10.125C164.65 274.375 206.8 304 256 304s91.35-29.625 109.875-72H376c6.6 0 12-5.4 12-12v-72c0-6.6-5.4-12-12-12h-10.125C347.35 93.625 305.2 64 256 64s-91.35 29.625-109.875 72H136c-6.6 0-12 5.4-12 12v72c0 6.6 5.4 12 12 12zm30-66c0-16.575 16.125-30 36-30h108c19.875 0 36 13.425 36 30v18c0 39.75-32.25 72-72 72h-36c-39.75 0-72-32.25-72-72v-18zm54 54l9-27 27-9-27-9-9-27-9 27-27 9 27 9 9 27zm113.7 85.05C311.275 319.525 284.65 328 256 328c-28.65 0-55.275-8.475-77.7-22.95-50.625 5.325-90.3 47.7-90.3 99.75v7.2c0 19.875 16.125 36 36 36h60v-48c0-13.275 10.725-24 24-24h96c13.275 0 24 10.725 24 24v48h60c19.875 0 36-16.125 36-36v-7.2c0-52.05-39.675-94.425-90.3-99.75zM292 400c-6.6 0-12 5.4-12 12s5.4 12 12 12 12-5.4 12-12-5.4-12-12-12zm-72 0c-6.6 0-12 5.4-12 12v36h24v-36c0-6.6-5.4-12-12-12z" fill="#E8E8E8" fill-rule="nonzero"/></g></svg>